solid OpenSCAD_Model
  facet normal -1 0 0
    outer loop
      vertex 0 6 0
      vertex 0 30.6 5.5
      vertex 0 30.6 0
    endloop
  endfacet
  facet normal -1 -0 0
    outer loop
      vertex 0 30.6 5.5
      vertex 0 6 0
      vertex 0 6 5.5
    endloop
  endfacet
  facet normal -0 0 1
    outer loop
      vertex 10 30.6 5.5
      vertex 29.6 27.3071 5.5
      vertex 29.6 30.6 5.5
    endloop
  endfacet
  facet normal 0 0 1
    outer loop
      vertex 29.6 27.3071 5.5
      vertex 10 30.6 5.5
      vertex 10 7.70711 5.5
    endloop
  endfacet
  facet normal 0 0 1
    outer loop
      vertex 9 30.6 5.5
      vertex 7 7 5.5
      vertex 9 6 5.5
    endloop
  endfacet
  facet normal 0 0 1
    outer loop
      vertex 9 30.6 5.5
      vertex 6 7 5.5
      vertex 7 7 5.5
    endloop
  endfacet
  facet normal -0 0 1
    outer loop
      vertex 0 30.6 5.5
      vertex 6 7 5.5
      vertex 9 30.6 5.5
    endloop
  endfacet
  facet normal 0 0 1
    outer loop
      vertex 0 6 5.5
      vertex 6 7 5.5
      vertex 0 30.6 5.5
    endloop
  endfacet
  facet normal 0 0 1
    outer loop
      vertex 6 7 5.5
      vertex 0 6 5.5
      vertex 6 6 5.5
    endloop
  endfacet
  facet normal 0 0 1
    outer loop
      vertex 9 6 5.5
      vertex 7 7 5.5
      vertex 7 6 5.5
    endloop
  endfacet
  facet normal -0 0 1
    outer loop
      vertex 10 6.29289 5.5
      vertex 29.6 6 5.5
      vertex 29.6 25.8929 5.5
    endloop
  endfacet
  facet normal 0 0 1
    outer loop
      vertex 29.6 6 5.5
      vertex 10 6.29289 5.5
      vertex 10 6 5.5
    endloop
  endfacet
  facet normal 1 0 0
    outer loop
      vertex 29.6 25.8929 5.5
      vertex 29.6 6 5.5
      vertex 29.6 25.8929 5
    endloop
  endfacet
  facet normal 1 0 0
    outer loop
      vertex 29.6 27.3071 5
      vertex 29.6 30.6 5.5
      vertex 29.6 27.3071 5.5
    endloop
  endfacet
  facet normal 1 0 0
    outer loop
      vertex 29.6 30.6 5.5
      vertex 29.6 27.3071 5
      vertex 29.6 30.6 0
    endloop
  endfacet
  facet normal 1 -0 0
    outer loop
      vertex 29.6 25.8929 5
      vertex 29.6 30.6 0
      vertex 29.6 27.3071 5
    endloop
  endfacet
  facet normal 1 0 0
    outer loop
      vertex 29.6 6 0
      vertex 29.6 25.8929 5
      vertex 29.6 6 5.5
    endloop
  endfacet
  facet normal 1 0 0
    outer loop
      vertex 29.6 25.8929 5
      vertex 29.6 6 0
      vertex 29.6 30.6 0
    endloop
  endfacet
  facet normal 0 0 -1
    outer loop
      vertex 6 6 0
      vertex 0 6 0
      vertex 6 7 0
    endloop
  endfacet
  facet normal 0 0 -1
    outer loop
      vertex 9 6 0
      vertex 7 6 0
      vertex 9 7 0
    endloop
  endfacet
  facet normal 0 0 -1
    outer loop
      vertex 10 7 0
      vertex 29.6 6 0
      vertex 10 6 0
    endloop
  endfacet
  facet normal 0 0 -1
    outer loop
      vertex 29.6 6 0
      vertex 10 7 0
      vertex 29.6 30.6 0
    endloop
  endfacet
  facet normal 0 0 -1
    outer loop
      vertex 0 30.6 0
      vertex 10 7 0
      vertex 9 7 0
    endloop
  endfacet
  facet normal 0 0 -1
    outer loop
      vertex 7 7 0
      vertex 9 7 0
      vertex 7 6 0
    endloop
  endfacet
  facet normal 0 0 -1
    outer loop
      vertex 0 30.6 0
      vertex 9 7 0
      vertex 7 7 0
    endloop
  endfacet
  facet normal 0 0 -1
    outer loop
      vertex 0 30.6 0
      vertex 7 7 0
      vertex 6 7 0
    endloop
  endfacet
  facet normal 0 0 -1
    outer loop
      vertex 0 30.6 0
      vertex 6 7 0
      vertex 0 6 0
    endloop
  endfacet
  facet normal 0 0 -1
    outer loop
      vertex 10 7 0
      vertex 0 30.6 0
      vertex 29.6 30.6 0
    endloop
  endfacet
  facet normal 0 1 0
    outer loop
      vertex 29.6 30.6 5.5
      vertex 10 30.6 5
      vertex 10 30.6 5.5
    endloop
  endfacet
  facet normal 0 1 0
    outer loop
      vertex 0 30.6 0
      vertex 10 30.6 5
      vertex 29.6 30.6 0
    endloop
  endfacet
  facet normal 0 1 -0
    outer loop
      vertex 29.6 30.6 0
      vertex 10 30.6 5
      vertex 29.6 30.6 5.5
    endloop
  endfacet
  facet normal 0 1 -0
    outer loop
      vertex 9 30.6 5
      vertex 0 30.6 5.5
      vertex 9 30.6 5.5
    endloop
  endfacet
  facet normal 0 1 0
    outer loop
      vertex 10 30.6 5
      vertex 0 30.6 0
      vertex 9 30.6 5
    endloop
  endfacet
  facet normal 0 1 0
    outer loop
      vertex 9 30.6 5
      vertex 0 30.6 0
      vertex 0 30.6 5.5
    endloop
  endfacet
  facet normal 1 -0 0
    outer loop
      vertex 6 6 5.5
      vertex 6 7 0
      vertex 6 7 5.5
    endloop
  endfacet
  facet normal 1 0 0
    outer loop
      vertex 6 7 0
      vertex 6 6 5.5
      vertex 6 6 0
    endloop
  endfacet
  facet normal -1 0 0
    outer loop
      vertex 7 6 0
      vertex 7 7 5.5
      vertex 7 7 0
    endloop
  endfacet
  facet normal -1 -0 0
    outer loop
      vertex 7 7 5.5
      vertex 7 6 0
      vertex 7 6 5.5
    endloop
  endfacet
  facet normal 0 -1 0
    outer loop
      vertex 6 7 0
      vertex 7 7 5.5
      vertex 6 7 5.5
    endloop
  endfacet
  facet normal 0 -1 -0
    outer loop
      vertex 7 7 5.5
      vertex 6 7 0
      vertex 7 7 0
    endloop
  endfacet
  facet normal 0 -1 0
    outer loop
      vertex 0 6 0
      vertex 6 6 5.5
      vertex 0 6 5.5
    endloop
  endfacet
  facet normal 0 -1 -0
    outer loop
      vertex 6 6 5.5
      vertex 0 6 0
      vertex 6 6 0
    endloop
  endfacet
  facet normal 0 -1 0
    outer loop
      vertex 7 6 0
      vertex 9 6 5.5
      vertex 7 6 5.5
    endloop
  endfacet
  facet normal 0 -1 -0
    outer loop
      vertex 9 6 5.5
      vertex 7 6 0
      vertex 9 6 0
    endloop
  endfacet
  facet normal 0 -1 0
    outer loop
      vertex 10 6 0
      vertex 29.6 6 5.5
      vertex 10 6 5.5
    endloop
  endfacet
  facet normal 0 -1 -0
    outer loop
      vertex 29.6 6 5.5
      vertex 10 6 0
      vertex 29.6 6 0
    endloop
  endfacet
  facet normal 1 0 0
    outer loop
      vertex 9 30.6 5.5
      vertex 9 7 5
      vertex 9 30.6 5
    endloop
  endfacet
  facet normal 1 -0 0
    outer loop
      vertex 9 6 5.5
      vertex 9 7 5
      vertex 9 30.6 5.5
    endloop
  endfacet
  facet normal 1 0 0
    outer loop
      vertex 9 6 0
      vertex 9 7 5
      vertex 9 6 5.5
    endloop
  endfacet
  facet normal 1 0 0
    outer loop
      vertex 9 7 5
      vertex 9 6 0
      vertex 9 7 0
    endloop
  endfacet
  facet normal -1 0 0
    outer loop
      vertex 10 7 0
      vertex 10 6.29289 5
      vertex 10 7 5
    endloop
  endfacet
  facet normal -1 0 0
    outer loop
      vertex 10 6 0
      vertex 10 6.29289 5
      vertex 10 7 0
    endloop
  endfacet
  facet normal -1 0 0
    outer loop
      vertex 10 6 5.5
      vertex 10 6.29289 5
      vertex 10 6 0
    endloop
  endfacet
  facet normal -1 0 0
    outer loop
      vertex 10 6.29289 5
      vertex 10 6 5.5
      vertex 10 6.29289 5.5
    endloop
  endfacet
  facet normal -1 0 0
    outer loop
      vertex 10 7.70711 5
      vertex 10 30.6 5.5
      vertex 10 30.6 5
    endloop
  endfacet
  facet normal -1 -0 0
    outer loop
      vertex 10 30.6 5.5
      vertex 10 7.70711 5
      vertex 10 7.70711 5.5
    endloop
  endfacet
  facet normal 0 -1 0
    outer loop
      vertex 9 7 0
      vertex 10 7 5
      vertex 9 7 5
    endloop
  endfacet
  facet normal 0 -1 -0
    outer loop
      vertex 10 7 5
      vertex 9 7 0
      vertex 10 7 0
    endloop
  endfacet
  facet normal 0 0 1
    outer loop
      vertex 10 7.70711 5
      vertex 29.6 25.8929 5
      vertex 29.6 27.3071 5
    endloop
  endfacet
  facet normal 0 0 1
    outer loop
      vertex 10 7 5
      vertex 29.6 25.8929 5
      vertex 10 7.70711 5
    endloop
  endfacet
  facet normal 0 0 1
    outer loop
      vertex 29.6 25.8929 5
      vertex 10 7 5
      vertex 10 6.29289 5
    endloop
  endfacet
  facet normal -0 0 1
    outer loop
      vertex 9 30.6 5
      vertex 10 7.70711 5
      vertex 10 30.6 5
    endloop
  endfacet
  facet normal 0 0 1
    outer loop
      vertex 9 7 5
      vertex 10 7.70711 5
      vertex 9 30.6 5
    endloop
  endfacet
  facet normal 0 0 1
    outer loop
      vertex 10 7.70711 5
      vertex 9 7 5
      vertex 10 7 5
    endloop
  endfacet
  facet normal 0.707107 -0.707107 0
    outer loop
      vertex 10 7.70711 5.5
      vertex 29.6 27.3071 5
      vertex 29.6 27.3071 5.5
    endloop
  endfacet
  facet normal 0.707107 -0.707107 0
    outer loop
      vertex 29.6 27.3071 5
      vertex 10 7.70711 5.5
      vertex 10 7.70711 5
    endloop
  endfacet
  facet normal -0.707107 0.707107 0
    outer loop
      vertex 10 6.29289 5
      vertex 29.6 25.8929 5.5
      vertex 29.6 25.8929 5
    endloop
  endfacet
  facet normal -0.707107 0.707107 0
    outer loop
      vertex 29.6 25.8929 5.5
      vertex 10 6.29289 5
      vertex 10 6.29289 5.5
    endloop
  endfacet
endsolid OpenSCAD_Model
