<?xml version="1.0" encoding="utf-8"?>
<!-- Generator: Adobe Illustrator 16.0.4, SVG Export Plug-In . SVG Version: 6.00 Build 0)  -->
<!DOCTYPE svg PUBLIC "-//W3C//DTD SVG 1.1//EN" "http://www.w3.org/Graphics/SVG/1.1/DTD/svg11.dtd">
<svg version="1.1"
	 id="svg" xmlns:dc="http://purl.org/dc/elements/1.1/" xmlns:cc="http://creativecommons.org/ns#" xmlns:rdf="http://www.w3.org/1999/02/22-rdf-syntax-ns#" xmlns:svg="http://www.w3.org/2000/svg" xmlns:sodipodi="http://sodipodi.sourceforge.net/DTD/sodipodi-0.dtd" xmlns:inkscape="http://www.inkscape.org/namespaces/inkscape" inkscape:version="0.91 r13725" sodipodi:docname="board_cube.svg"
	 xmlns="http://www.w3.org/2000/svg" xmlns:xlink="http://www.w3.org/1999/xlink" x="0px" y="0px" width="327.402px"
	 height="327.402px" viewBox="0 0 327.402 327.402" enable-background="new 0 0 327.402 327.402" xml:space="preserve">
<g id="silkscreen0" transform="translate(0.99998474,81.848969)">
</g>
<g id="silkscreen" transform="translate(0.99998474,81.848969)">
</g>
<g id="board" transform="matrix(1.2499984,0,0,1.2499946,1.2499831,0)">
	<path fill="#6C8898" d="M254.117,0H5.803C2.046,0-1,3.046-1,6.803V255.12c0,3.757,3.046,6.803,6.803,6.803h248.316
		c3.758,0,6.803-3.046,6.803-6.803V6.803C260.921,3.046,257.877,0,254.117,0z M5.802,3.176c2.004,0,3.628,1.623,3.628,3.627
		c0,2.003-1.624,3.628-3.628,3.628c-2.004,0-3.629-1.625-3.629-3.628C2.174,4.8,3.799,3.176,5.802,3.176z M2.288,102.616
		L2.288,102.616V68.599h7.03v34.017H2.288z M9.318,159.307v34.017h-7.03v-34.017H9.318z M5.803,258.747
		c-2.004,0-3.629-1.623-3.629-3.627c0-2.003,1.625-3.628,3.629-3.628c2.004,0,3.628,1.625,3.628,3.628
		C9.432,257.123,7.807,258.747,5.803,258.747z M101.615,258.634H67.599v-7.03h34.016V258.634z M101.615,10.319H67.599v-7.03h34.016
		V10.319z M192.323,258.634h-34.016v-7.03h34.016V258.634z M192.323,10.319h-34.016v-7.03h34.016V10.319z M254.119,258.747
		c-2.005,0-3.629-1.623-3.629-3.627c0-2.003,1.624-3.628,3.629-3.628c2.004,0,3.628,1.625,3.628,3.628
		C257.747,257.123,256.123,258.747,254.119,258.747z M250.602,102.616L250.602,102.616V68.599h7.031v34.017H250.602z
		 M257.633,159.307v34.017h-7.03v-34.017H257.633z M254.119,10.432c-2.005,0-3.629-1.625-3.629-3.628
		c0-2.004,1.624-3.627,3.629-3.627c2.004,0,3.628,1.623,3.628,3.627C257.747,8.807,256.123,10.432,254.119,10.432z"/>
</g>
</svg>
